<?xml version="1.0" encoding="UTF-8" ?>
<!DOCTYPE svg PUBLIC "-//W3C//DTD SVG 1.1//EN" "http://www.w3.org/Graphics/SVG/1.1/DTD/svg11.dtd">
<svg width="1001pt" height="747pt" viewBox="0 0 1001 747" version="1.1" xmlns="http://www.w3.org/2000/svg">
<g id="#25292dff">
<path fill="#25292d" opacity="1.00" d=" M 0.00 0.00 L 1001.00 0.00 L 1001.00 747.00 L 0.00 747.00 L 0.00 0.00 M 739.52 136.81 C 682.67 161.87 626.14 187.66 569.25 212.60 C 521.35 212.59 473.45 212.74 425.55 213.06 C 424.61 212.02 423.20 211.64 421.93 211.20 C 416.51 209.56 411.50 206.87 406.26 204.74 C 356.14 183.07 306.16 161.00 255.94 139.57 C 254.76 138.11 252.77 137.75 251.17 136.94 C 241.25 165.31 231.40 193.74 221.38 222.06 C 226.43 251.81 232.04 281.51 236.65 311.34 C 232.53 314.19 228.33 316.91 224.13 319.62 C 229.50 324.56 235.57 328.68 240.99 333.57 C 236.73 336.79 231.99 339.40 228.03 343.01 C 233.11 348.71 239.02 353.66 244.31 359.19 C 240.87 361.73 237.23 363.98 233.67 366.35 C 241.36 376.38 249.40 386.15 257.39 395.95 L 258.52 395.62 C 245.12 436.39 230.84 476.87 217.24 517.57 L 216.92 517.55 C 215.69 518.25 214.43 518.87 213.12 519.40 C 213.64 519.62 214.68 520.05 215.21 520.27 C 214.82 520.72 214.04 521.62 213.65 522.07 C 214.45 522.00 216.05 521.86 216.86 521.78 C 227.60 564.54 238.34 607.30 249.10 650.06 C 290.58 635.26 332.06 620.46 373.53 605.63 C 374.48 605.40 375.45 605.27 376.43 605.25 C 377.45 605.48 378.45 605.69 379.48 605.95 L 378.69 604.83 C 385.38 608.90 392.04 613.03 398.65 617.23 C 401.89 619.40 405.76 620.22 409.42 621.40 C 421.94 625.35 434.46 629.29 446.97 633.25 C 446.54 633.54 445.67 634.12 445.23 634.41 C 473.48 634.24 501.75 634.40 530.01 634.42 C 532.82 634.36 535.68 634.91 538.46 634.31 C 555.60 629.11 572.90 624.40 590.07 619.29 C 598.38 614.94 606.27 609.76 614.44 605.12 L 613.68 606.95 C 614.12 606.58 614.99 605.82 615.43 605.45 C 619.10 605.25 622.43 606.96 625.82 608.11 C 666.25 622.40 706.67 636.71 747.11 650.99 C 757.87 607.99 768.70 565.01 779.38 521.99 C 780.20 522.06 781.86 522.21 782.68 522.28 C 782.28 521.76 781.48 520.71 781.08 520.19 C 781.70 519.99 782.94 519.59 783.56 519.40 C 782.18 519.07 780.86 518.72 779.49 518.52 C 770.92 494.98 763.00 471.20 754.69 447.56 C 748.77 430.15 742.39 412.90 736.78 395.39 L 737.71 395.71 C 745.69 385.70 753.76 375.76 761.73 365.74 C 758.20 363.28 754.57 360.94 750.96 358.60 C 756.35 352.92 762.15 347.65 767.66 342.09 C 763.36 338.87 758.91 335.87 754.55 332.73 C 759.72 327.54 766.07 323.72 771.25 318.54 C 767.22 315.60 762.55 313.47 758.95 309.99 C 759.04 305.64 760.11 301.40 760.77 297.12 C 765.02 271.44 769.41 245.76 773.60 220.09 C 763.01 191.76 752.91 163.22 742.55 134.79 C 741.52 135.45 740.48 136.09 739.52 136.81 Z" />
</g>
<g id="#6d401eff">
<path fill="#6d401e" opacity="1.00" d=" M 739.52 136.81 C 740.48 136.09 741.52 135.45 742.55 134.79 C 752.91 163.22 763.01 191.76 773.60 220.09 C 769.41 245.76 765.02 271.44 760.77 297.12 C 760.11 301.40 759.04 305.64 758.95 309.99 C 762.55 313.47 767.22 315.60 771.25 318.54 C 766.07 323.72 759.72 327.54 754.55 332.73 C 758.91 335.87 763.36 338.87 767.66 342.09 C 762.15 347.65 756.35 352.92 750.96 358.60 C 754.57 360.94 758.20 363.28 761.73 365.74 C 753.76 375.76 745.69 385.70 737.71 395.71 L 736.78 395.39 C 723.66 391.19 710.23 387.95 696.99 384.12 C 671.86 377.21 646.79 370.07 621.61 363.31 C 617.58 361.21 614.42 357.89 611.02 354.96 C 586.63 333.65 562.18 312.40 537.83 291.05 C 537.63 290.85 537.24 290.46 537.05 290.26 C 551.14 280.39 564.55 269.55 578.37 259.31 C 627.09 222.39 675.81 185.48 724.53 148.57 C 729.56 144.69 734.79 141.07 739.52 136.81 Z" />
<path fill="#6d401e" opacity="1.00" d=" M 251.17 136.94 C 252.77 137.75 254.76 138.11 255.94 139.57 L 256.69 140.53 C 257.27 141.19 257.90 141.83 258.59 142.41 C 324.04 191.63 389.66 240.66 455.04 289.98 L 454.95 290.73 C 452.62 294.40 449.06 296.96 445.86 299.80 C 429.25 314.54 412.64 329.26 396.02 344.00 C 388.41 350.46 381.38 357.62 373.33 363.56 C 334.99 373.99 296.80 384.97 258.52 395.62 L 257.39 395.95 C 249.40 386.15 241.36 376.38 233.67 366.35 C 237.23 363.98 240.87 361.73 244.31 359.19 C 239.02 353.66 233.11 348.71 228.03 343.01 C 231.99 339.40 236.73 336.79 240.99 333.57 C 235.57 328.68 229.50 324.56 224.13 319.62 C 228.33 316.91 232.53 314.19 236.65 311.34 C 232.04 281.51 226.43 251.81 221.38 222.06 C 231.40 193.74 241.25 165.31 251.17 136.94 Z" />
</g>
<g id="#d27c34ff">
<path fill="#d27c34" opacity="1.00" d=" M 569.25 212.60 C 626.14 187.66 682.67 161.87 739.52 136.81 C 734.79 141.07 729.56 144.69 724.53 148.57 C 675.81 185.48 627.09 222.39 578.37 259.31 C 564.55 269.55 551.14 280.39 537.05 290.26 C 537.91 286.94 539.03 283.70 540.45 280.58 C 550.11 257.95 559.49 235.19 569.25 212.60 Z" />
</g>
<g id="#d47c35ff">
<path fill="#d47c35" opacity="1.00" d=" M 256.69 140.53 L 255.94 139.57 C 306.16 161.00 356.14 183.07 406.26 204.74 C 411.50 206.87 416.51 209.56 421.93 211.20 C 423.20 211.64 424.61 212.02 425.55 213.06 C 435.76 236.33 444.60 260.20 454.34 283.68 C 455.25 285.66 455.45 287.85 455.04 289.98 C 389.66 240.66 324.04 191.63 258.59 142.41 C 257.90 141.83 257.27 141.19 256.69 140.53 Z" />
<path fill="#d47c35" opacity="1.00" d=" M 445.86 299.80 C 449.06 296.96 452.62 294.40 454.95 290.73 C 454.58 300.17 455.89 309.56 456.03 318.99 C 457.41 346.98 458.99 374.97 460.23 402.96 C 460.69 406.26 463.87 408.54 463.90 411.97 C 464.31 421.58 465.14 431.17 465.61 440.77 C 463.55 441.97 461.75 443.55 460.12 445.28 C 461.02 445.46 461.93 445.64 462.85 445.83 C 463.17 455.90 461.85 465.94 462.09 476.01 C 461.71 487.42 462.48 498.92 460.73 510.24 C 457.19 496.98 454.86 483.44 451.59 470.12 C 450.42 470.21 449.25 470.30 448.09 470.38 L 448.21 469.73 C 451.87 456.24 453.76 442.34 456.56 428.65 C 457.83 421.22 459.94 413.92 460.22 406.36 C 420.05 405.95 379.88 405.50 339.72 404.96 C 340.43 402.81 341.60 400.83 343.18 399.19 C 348.49 393.48 353.39 387.40 358.54 381.55 C 363.53 375.60 368.93 369.98 373.33 363.56 C 381.38 357.62 388.41 350.46 396.02 344.00 C 412.64 329.26 429.25 314.54 445.86 299.80 Z" />
<path fill="#d47c35" opacity="1.00" d=" M 537.83 291.05 C 562.18 312.40 586.63 333.65 611.02 354.96 C 614.42 357.89 617.58 361.21 621.61 363.31 C 626.22 371.97 633.63 378.67 639.51 386.43 C 644.18 392.82 650.29 398.19 653.79 405.38 C 654.90 405.25 656.00 405.08 657.13 404.92 C 654.13 408.84 651.72 413.15 649.65 417.62 C 640.16 435.84 630.59 454.02 621.21 472.31 C 615.24 482.71 610.70 493.89 604.24 504.01 C 603.94 497.33 604.65 490.67 604.83 484.00 C 604.97 474.62 605.18 465.24 605.15 455.86 C 605.94 455.65 607.53 455.24 608.32 455.03 C 606.79 454.30 605.27 453.57 603.76 452.86 C 619.75 436.74 636.77 421.63 652.29 405.05 C 638.87 404.75 625.43 405.14 612.01 405.50 C 591.01 405.62 570.02 405.91 549.02 406.08 C 543.79 406.18 538.40 405.61 533.34 407.29 C 532.55 406.46 531.79 405.62 531.06 404.76 C 533.08 374.83 535.10 344.89 537.10 314.96 C 537.48 307.00 538.75 299.02 537.83 291.05 Z" />
<path fill="#d47c35" opacity="1.00" d=" M 239.04 515.86 C 264.41 512.68 289.79 509.54 315.15 506.30 C 320.49 507.13 325.77 508.82 331.28 508.28 C 327.44 508.55 323.61 508.98 319.77 509.29 C 336.50 537.70 354.01 565.66 370.92 593.97 C 372.45 596.59 374.19 599.09 376.04 601.51 C 377.00 597.40 377.60 593.23 377.94 589.04 C 380.90 561.41 384.30 533.82 387.16 506.17 C 389.92 506.57 392.48 507.74 394.97 508.94 C 412.86 517.54 431.13 525.38 448.84 534.34 C 425.26 556.28 401.69 578.23 378.18 600.22 C 376.36 601.23 377.62 602.96 378.29 604.28 L 378.69 604.83 L 379.48 605.95 C 378.45 605.69 377.45 605.48 376.43 605.25 C 375.45 605.27 374.48 605.40 373.53 605.63 C 332.06 620.46 290.58 635.26 249.10 650.06 C 238.34 607.30 227.60 564.54 216.86 521.78 C 216.05 521.86 214.45 522.00 213.65 522.07 C 214.04 521.62 214.82 520.72 215.21 520.27 C 214.68 520.05 213.64 519.62 213.12 519.40 C 214.43 518.87 215.69 518.25 216.92 517.55 L 217.24 517.57 C 224.57 518.53 231.78 516.49 239.04 515.86 Z" />
<path fill="#d47c35" opacity="1.00" d=" M 591.29 511.20 C 595.62 509.28 599.88 506.84 604.67 506.25 C 607.18 530.55 610.83 554.73 613.78 578.99 C 614.99 586.74 615.25 594.65 617.28 602.26 C 632.77 576.75 648.17 551.18 663.50 525.56 C 666.70 520.00 670.45 514.74 673.16 508.90 C 673.59 507.95 674.03 507.00 674.48 506.05 C 699.94 509.07 725.38 512.29 750.84 515.36 C 760.39 516.43 769.89 517.97 779.49 518.52 C 780.86 518.72 782.18 519.07 783.56 519.40 C 782.94 519.59 781.70 519.99 781.08 520.19 C 781.48 520.71 782.28 521.76 782.68 522.28 C 781.86 522.21 780.20 522.06 779.38 521.99 C 768.70 565.01 757.87 607.99 747.11 650.99 C 706.67 636.71 666.25 622.40 625.82 608.11 C 622.43 606.96 619.10 605.25 615.43 605.45 C 614.99 605.82 614.12 606.58 613.68 606.95 L 614.44 605.12 L 614.62 604.84 C 615.25 603.86 615.88 602.88 616.52 601.92 C 590.52 579.34 564.46 556.82 538.35 534.37 C 555.80 526.22 573.66 518.97 591.29 511.20 Z" />
</g>
<g id="#e58b38ff">
<path fill="#e58b38" opacity="1.00" d=" M 425.55 213.06 C 473.45 212.74 521.35 212.59 569.25 212.60 C 559.49 235.19 550.11 257.95 540.45 280.58 C 539.03 283.70 537.91 286.94 537.05 290.26 C 537.24 290.46 537.63 290.85 537.83 291.05 C 538.75 299.02 537.48 307.00 537.10 314.96 C 535.10 344.89 533.08 374.83 531.06 404.76 C 531.79 405.62 532.55 406.46 533.34 407.29 C 532.83 407.43 531.80 407.72 531.28 407.86 C 529.86 406.64 528.57 405.29 527.28 403.95 C 528.21 416.02 525.51 428.01 525.21 440.05 C 525.66 442.84 528.45 444.89 527.95 447.96 C 526.76 469.68 527.21 491.46 526.36 513.20 C 531.51 499.10 535.02 484.47 539.38 470.12 C 540.58 470.21 541.78 470.29 543.00 470.38 C 546.96 470.65 550.80 469.48 554.59 468.46 C 571.44 464.24 588.30 460.08 605.15 455.86 C 605.18 465.24 604.97 474.62 604.83 484.00 C 604.65 490.67 603.94 497.33 604.24 504.01 C 610.70 493.89 615.24 482.71 621.21 472.31 C 630.59 454.02 640.16 435.84 649.65 417.62 C 651.72 413.15 654.13 408.84 657.13 404.92 C 656.00 405.08 654.90 405.25 653.79 405.38 C 650.29 398.19 644.18 392.82 639.51 386.43 C 633.63 378.67 626.22 371.97 621.61 363.31 C 646.79 370.07 671.86 377.21 696.99 384.12 C 710.23 387.95 723.66 391.19 736.78 395.39 C 742.39 412.90 748.77 430.15 754.69 447.56 C 763.00 471.20 770.92 494.98 779.49 518.52 C 769.89 517.97 760.39 516.43 750.84 515.36 C 725.38 512.29 699.94 509.07 674.48 506.05 C 674.03 507.00 673.59 507.95 673.16 508.90 C 650.34 507.85 627.50 507.00 604.67 506.25 C 599.88 506.84 595.62 509.28 591.29 511.20 C 573.66 518.97 555.80 526.22 538.35 534.37 C 538.06 534.34 537.46 534.28 537.17 534.25 C 537.05 532.41 536.90 530.58 536.76 528.76 C 536.20 529.73 535.61 530.68 534.99 531.62 C 531.43 529.38 528.28 526.50 524.61 524.47 C 506.75 524.99 488.86 524.50 470.99 524.74 C 468.31 524.82 465.64 524.50 463.03 523.93 C 458.71 527.13 454.05 529.87 449.94 533.33 C 449.67 533.58 449.12 534.09 448.84 534.34 C 431.13 525.38 412.86 517.54 394.97 508.94 C 392.48 507.74 389.92 506.57 387.16 506.17 C 368.53 506.70 349.91 507.59 331.28 508.28 C 325.77 508.82 320.49 507.13 315.15 506.30 C 289.79 509.54 264.41 512.68 239.04 515.86 C 231.78 516.49 224.57 518.53 217.24 517.57 C 230.84 476.87 245.12 436.39 258.52 395.62 C 296.80 384.97 334.99 373.99 373.33 363.56 C 368.93 369.98 363.53 375.60 358.54 381.55 C 353.39 387.40 348.49 393.48 343.18 399.19 C 341.60 400.83 340.43 402.81 339.72 404.96 L 339.84 405.75 C 338.20 405.39 336.54 405.12 334.90 404.84 C 337.28 407.94 339.65 411.08 341.38 414.62 C 348.73 429.81 356.96 444.55 364.38 459.70 C 371.62 474.31 379.31 488.69 386.73 503.20 C 387.63 495.50 386.91 487.75 386.96 480.02 C 386.74 471.94 387.16 463.80 386.01 455.77 C 404.69 460.48 423.41 465.09 442.07 469.89 C 444.03 470.34 446.07 470.50 448.09 470.38 C 449.25 470.30 450.42 470.21 451.59 470.12 C 454.86 483.44 457.19 496.98 460.73 510.24 C 462.48 498.92 461.71 487.42 462.09 476.01 C 461.85 465.94 463.17 455.90 462.85 445.83 C 461.93 445.64 461.02 445.46 460.12 445.28 C 461.75 443.55 463.55 441.97 465.61 440.77 C 465.14 431.17 464.31 421.58 463.90 411.97 C 463.87 408.54 460.69 406.26 460.23 402.96 C 458.99 374.97 457.41 346.98 456.03 318.99 C 455.89 309.56 454.58 300.17 454.95 290.73 L 455.04 289.98 C 455.45 287.85 455.25 285.66 454.34 283.68 C 444.60 260.20 435.76 236.33 425.55 213.06 Z" />
</g>
<g id="#d47b36ff">
<path fill="#d47b36" opacity="1.00" d=" M 527.28 403.95 C 528.57 405.29 529.86 406.64 531.28 407.86 C 532.40 418.69 535.06 429.28 536.84 440.02 C 538.91 449.92 540.01 460.04 542.89 469.76 L 543.00 470.38 C 541.78 470.29 540.58 470.21 539.38 470.12 C 535.02 484.47 531.51 499.10 526.36 513.20 C 527.21 491.46 526.76 469.68 527.95 447.96 C 528.45 444.89 525.66 442.84 525.21 440.05 C 525.51 428.01 528.21 416.02 527.28 403.95 Z" />
<path fill="#d47b36" opacity="1.00" d=" M 334.90 404.84 C 336.54 405.12 338.20 405.39 339.84 405.75 C 345.82 410.89 351.14 416.72 356.83 422.18 C 367.09 432.62 378.07 442.33 388.20 452.91 C 386.66 453.62 385.13 454.34 383.60 455.07 C 384.21 455.24 385.41 455.59 386.01 455.77 C 387.16 463.80 386.74 471.94 386.96 480.02 C 386.91 487.75 387.63 495.50 386.73 503.20 C 379.31 488.69 371.62 474.31 364.38 459.70 C 356.96 444.55 348.73 429.81 341.38 414.62 C 339.65 411.08 337.28 407.94 334.90 404.84 Z" />
</g>
<g id="#bd672cff">
<path fill="#bd672c" opacity="1.00" d=" M 339.72 404.96 C 379.88 405.50 420.05 405.95 460.22 406.36 C 459.94 413.92 457.83 421.22 456.56 428.65 C 453.76 442.34 451.87 456.24 448.21 469.73 C 442.20 457.59 436.11 445.49 430.23 433.29 C 416.23 439.84 402.20 446.35 388.20 452.91 C 378.07 442.33 367.09 432.62 356.83 422.18 C 351.14 416.72 345.82 410.89 339.84 405.75 L 339.72 404.96 Z" />
<path fill="#bd672c" opacity="1.00" d=" M 612.01 405.50 C 625.43 405.14 638.87 404.75 652.29 405.05 C 636.77 421.63 619.75 436.74 603.76 452.86 C 589.66 446.29 575.52 439.81 561.44 433.21 C 555.34 445.44 549.06 457.57 542.89 469.76 C 540.01 460.04 538.91 449.92 536.84 440.02 C 535.06 429.28 532.40 418.69 531.28 407.86 C 531.80 407.72 532.83 407.43 533.34 407.29 C 538.40 405.61 543.79 406.18 549.02 406.08 C 570.02 405.91 591.01 405.62 612.01 405.50 Z" />
<path fill="#bd672c" opacity="1.00" d=" M 331.28 508.28 C 349.91 507.59 368.53 506.70 387.16 506.17 C 384.30 533.82 380.90 561.41 377.94 589.04 C 377.60 593.23 377.00 597.40 376.04 601.51 C 374.19 599.09 372.45 596.59 370.92 593.97 C 354.01 565.66 336.50 537.70 319.77 509.29 C 323.61 508.98 327.44 508.55 331.28 508.28 Z" />
<path fill="#bd672c" opacity="1.00" d=" M 604.67 506.25 C 627.50 507.00 650.34 507.85 673.16 508.90 C 670.45 514.74 666.70 520.00 663.50 525.56 C 648.17 551.18 632.77 576.75 617.28 602.26 C 615.25 594.65 614.99 586.74 613.78 578.99 C 610.83 554.73 607.18 530.55 604.67 506.25 Z" />
</g>
<g id="#273445ff">
<path fill="#273445" opacity="1.00" d=" M 388.20 452.91 C 402.20 446.35 416.23 439.84 430.23 433.29 C 436.11 445.49 442.20 457.59 448.21 469.73 L 448.09 470.38 C 446.07 470.50 444.03 470.34 442.07 469.89 C 423.41 465.09 404.69 460.48 386.01 455.77 C 385.41 455.59 384.21 455.24 383.60 455.07 C 385.13 454.34 386.66 453.62 388.20 452.91 Z" />
<path fill="#273445" opacity="1.00" d=" M 542.89 469.76 C 549.06 457.57 555.34 445.44 561.44 433.21 C 575.52 439.81 589.66 446.29 603.76 452.86 C 605.27 453.57 606.79 454.30 608.32 455.03 C 607.53 455.24 605.94 455.65 605.15 455.86 C 588.30 460.08 571.44 464.24 554.59 468.46 C 550.80 469.48 546.96 470.65 543.00 470.38 L 542.89 469.76 Z" />
</g>
<g id="#161616ff">
<path fill="#161616" opacity="1.00" d=" M 449.94 533.33 C 454.05 529.87 458.71 527.13 463.03 523.93 C 465.64 524.50 468.31 524.82 470.99 524.74 C 488.86 524.50 506.75 524.99 524.61 524.47 C 528.28 526.50 531.43 529.38 534.99 531.62 C 535.61 530.68 536.20 529.73 536.76 528.76 C 536.90 530.58 537.05 532.41 537.17 534.25 C 538.86 553.02 541.98 571.65 543.59 590.42 C 540.89 586.54 537.98 582.82 535.08 579.10 C 507.31 579.08 479.53 579.08 451.76 579.00 C 450.05 581.34 448.37 583.71 446.71 586.09 C 446.07 585.89 444.78 585.48 444.14 585.27 C 445.76 567.93 448.60 550.70 449.94 533.33 Z" />
</g>
<g id="#d3c2b5ff">
<path fill="#d3c2b5" opacity="1.00" d=" M 448.84 534.34 C 449.12 534.09 449.67 533.58 449.94 533.33 C 448.60 550.70 445.76 567.93 444.14 585.27 C 444.08 593.59 444.91 601.89 444.90 610.21 C 440.64 611.16 436.25 611.92 431.88 611.30 C 414.01 609.03 396.21 606.20 378.29 604.28 C 377.62 602.96 376.36 601.23 378.18 600.22 C 401.69 578.23 425.26 556.28 448.84 534.34 Z" />
<path fill="#d3c2b5" opacity="1.00" d=" M 537.17 534.25 C 537.46 534.28 538.06 534.34 538.35 534.37 C 564.46 556.82 590.52 579.34 616.52 601.92 C 615.88 602.88 615.25 603.86 614.62 604.84 C 597.98 605.99 581.49 608.75 564.92 610.58 C 557.75 611.85 550.42 612.01 543.27 610.58 C 542.97 603.85 543.09 597.12 543.59 590.42 C 541.98 571.65 538.86 553.02 537.17 534.25 Z" />
</g>
<g id="#bdaea0ff">
<path fill="#bdaea0" opacity="1.00" d=" M 446.71 586.09 C 448.37 583.71 450.05 581.34 451.76 579.00 C 479.53 579.08 507.31 579.08 535.08 579.10 C 537.98 582.82 540.89 586.54 543.59 590.42 C 543.09 597.12 542.97 603.85 543.27 610.58 C 550.42 612.01 557.75 611.85 564.92 610.58 C 581.49 608.75 597.98 605.99 614.62 604.84 L 614.44 605.12 C 606.27 609.76 598.38 614.94 590.07 619.29 C 572.90 624.40 555.60 629.11 538.46 634.31 C 535.68 634.91 532.82 634.36 530.01 634.42 C 501.75 634.40 473.48 634.24 445.23 634.41 C 445.67 634.12 446.54 633.54 446.97 633.25 C 434.46 629.29 421.94 625.35 409.42 621.40 C 405.76 620.22 401.89 619.40 398.65 617.23 C 392.04 613.03 385.38 608.90 378.69 604.83 L 378.29 604.28 C 396.21 606.20 414.01 609.03 431.88 611.30 C 436.25 611.92 440.64 611.16 444.90 610.21 C 444.91 601.89 444.08 593.59 444.14 585.27 C 444.78 585.48 446.07 585.89 446.71 586.09 Z" />
</g>
</svg>
